<svg width="135" height="40" viewBox="0 0 135 40" fill="none" xmlns="http://www.w3.org/2000/svg">
<g id="Google Play Badge">
<g id="Group">
<path id="Vector" d="M130 40.0001H5C2.2 40.0001 0 37.8001 0 35.0001V5.00008C0 2.20008 2.2 7.62939e-05 5 7.62939e-05H130C132.8 7.62939e-05 135 2.20008 135 5.00008V35.0001C135 37.7001 132.8 40.0001 130 40.0001Z" fill="black"/>
<g id="Group 32531">
<g id="_Group_">
<g id="_Group_2">
<g id="_Group_3">
<path id="_Path_" d="M24.9785 20.276C25.0075 18.5912 25.879 17.0226 27.3314 16.1221C26.4309 14.8149 24.9494 14.0306 23.3518 13.9725C21.6669 13.7982 20.0402 14.9892 19.1978 14.9892C18.3264 14.9892 17.0192 14.0015 15.5958 14.0306C13.7367 14.0887 12.0228 15.1344 11.1223 16.7612C9.20508 20.1017 10.6285 25.011 12.4876 27.7125C13.4171 29.0487 14.4919 30.5012 15.9153 30.4721C17.3097 30.414 17.8035 29.6007 19.4883 29.6007C21.1441 29.6007 21.6379 30.4721 23.0613 30.4431C24.5428 30.414 25.4723 29.1068 26.3728 27.7706C27.041 26.841 27.5638 25.7953 27.8834 24.6914C26.1114 23.9362 24.9785 22.1933 24.9785 20.276Z" fill="white"/>
<path id="_Path_2" d="M22.2479 12.2005C23.0613 11.2419 23.468 9.96377 23.3518 8.71468C22.1027 8.83087 20.9698 9.44089 20.1564 10.3704C19.3431 11.3 18.9364 12.491 19.0235 13.7401C20.2726 13.7401 21.4636 13.1882 22.2479 12.2005Z" fill="white"/>
</g>
</g>
<g id="Group_2">
<path id="Vector_2" d="M42.4658 27.1025H37.7308L36.5979 30.4431H34.5936L39.0671 18.0393H41.1586L45.6321 30.4431H43.5987L42.4658 27.1025ZM38.2537 25.5629H42.001L40.1419 20.1308H40.0838L38.2537 25.5629Z" fill="white"/>
<path id="Vector_3" d="M55.3053 25.9405C55.3053 28.7583 53.7947 30.5593 51.5289 30.5593C50.367 30.6174 49.2632 30.0073 48.6822 28.9906H48.6531V33.4641H46.794V21.438H48.595V22.9485H48.6241C49.2051 21.9318 50.3089 21.3218 51.4999 21.3508C53.7947 21.3218 55.3053 23.1519 55.3053 25.9405ZM53.4171 25.9405C53.4171 24.1105 52.4585 22.9195 51.0351 22.9195C49.6117 22.9195 48.6531 24.1395 48.6531 25.9405C48.6531 27.7706 49.6117 28.9906 51.0351 28.9906C52.4585 28.9906 53.4171 27.7996 53.4171 25.9405Z" fill="white"/>
<path id="Vector_4" d="M65.269 25.9405C65.269 28.7583 63.7584 30.5593 61.4926 30.5593C60.3307 30.6174 59.2268 30.0073 58.6459 28.9906H58.6168V33.4641H56.7577V21.438H58.5587V22.9485H58.5878C59.1687 21.9318 60.2726 21.3218 61.4636 21.3508C63.7584 21.3218 65.269 23.1519 65.269 25.9405ZM63.3518 25.9405C63.3518 24.1105 62.3931 22.9195 60.9698 22.9195C59.5464 22.9195 58.5878 24.1395 58.5878 25.9405C58.5878 27.7706 59.5464 28.9906 60.9698 28.9906C62.4222 28.9906 63.3518 27.7996 63.3518 25.9405Z" fill="white"/>
<path id="Vector_5" d="M71.8339 27.0153C71.9792 28.2354 73.1702 29.0487 74.7969 29.0487C76.3655 29.0487 77.4984 28.2354 77.4984 27.1315C77.4984 26.1729 76.8303 25.5919 75.2036 25.1853L73.6059 24.8076C71.3401 24.2557 70.2653 23.1809 70.2653 21.467C70.2653 19.3174 72.1244 17.865 74.7679 17.865C77.3822 17.865 79.1833 19.3465 79.2414 21.467H77.3822C77.266 20.2179 76.2493 19.4917 74.7388 19.4917C73.2573 19.4917 72.2116 20.247 72.2116 21.3508C72.2116 22.2223 72.8506 22.7452 74.4774 23.1519L75.8427 23.5004C78.3989 24.1105 79.4447 25.1272 79.4447 26.9282C79.4447 29.2521 77.5856 30.7045 74.6517 30.7045C71.892 30.7045 70.0329 29.2811 69.9167 27.0444L71.8339 27.0153Z" fill="white"/>
<path id="Vector_6" d="M83.4534 19.2884V21.438H85.1673V22.9195H83.4534V27.9158C83.4534 28.7002 83.802 29.0487 84.5573 29.0487C84.7606 29.0487 84.964 29.0197 85.1673 29.0197V30.4721C84.8187 30.5302 84.4701 30.5593 84.1506 30.5593C82.3205 30.5593 81.5943 29.8621 81.5943 28.1192V22.8904H80.2871V21.438H81.5943V19.2884H83.4534Z" fill="white"/>
<path id="Vector_7" d="M86.184 25.9405C86.184 23.0938 87.8688 21.3218 90.4832 21.3218C93.0976 21.3218 94.7824 23.1228 94.7824 25.9405C94.7824 28.7873 93.1266 30.5593 90.4832 30.5593C87.8398 30.5883 86.184 28.7873 86.184 25.9405ZM92.8652 25.9405C92.8652 23.9943 91.9647 22.8323 90.4541 22.8323C88.9436 22.8323 88.0431 23.9943 88.0431 25.9405C88.0431 27.8868 88.9436 29.0487 90.4541 29.0487C91.9647 29.0487 92.8652 27.9158 92.8652 25.9405Z" fill="white"/>
<path id="Vector_8" d="M96.2929 21.438H98.0649V22.9776H98.094C98.3263 21.9899 99.2559 21.2927 100.273 21.3508C100.476 21.3508 100.708 21.3799 100.912 21.4089V23.1519C100.65 23.0647 100.36 23.0357 100.069 23.0357C99.0235 23.0066 98.1811 23.7909 98.123 24.8367C98.123 24.9238 98.123 25.04 98.123 25.1272V30.5012H96.2929V21.438Z" fill="white"/>
<path id="Vector_9" d="M109.452 27.7996C109.191 29.4264 107.593 30.5593 105.559 30.5593C102.916 30.5593 101.289 28.7873 101.289 25.9696C101.289 23.1228 102.916 21.2927 105.472 21.2927C107.97 21.2927 109.539 23.0066 109.539 25.7662V26.4053H103.148V26.5215C103.032 27.8287 103.991 28.9616 105.298 29.0778C105.385 29.0778 105.501 29.0778 105.588 29.0778C106.489 29.1649 107.331 28.642 107.68 27.7996H109.452ZM103.177 25.1272H107.709C107.767 23.9362 106.867 22.8904 105.647 22.8323C105.588 22.8323 105.53 22.8323 105.472 22.8323C104.223 22.8033 103.207 23.82 103.177 25.1272C103.177 25.0981 103.177 25.0981 103.177 25.1272Z" fill="white"/>
</g>
</g>
<g id="_Group_4">
<g id="Group_3">
<path id="Vector_10" d="M38.0214 8.7437C39.4738 8.62751 40.7229 9.73135 40.8391 11.1838C40.8391 11.3581 40.8391 11.5324 40.8391 11.7067C40.8391 13.6239 39.8224 14.6987 38.0214 14.6987H35.8718V8.7437H38.0214ZM36.7723 13.8563H37.9052C38.9509 13.9144 39.8224 13.13 39.8805 12.0843C39.8805 11.9681 39.8805 11.8229 39.8514 11.7067C39.9967 10.69 39.2705 9.73135 38.2538 9.58611C38.1376 9.55706 38.0214 9.55707 37.9052 9.55707H36.7723V13.8563Z" fill="white"/>
<path id="Vector_11" d="M41.8558 12.4329C41.7396 11.2709 42.611 10.2252 43.773 10.109C44.9349 9.99279 45.9807 10.8643 46.0969 12.0262C46.0969 12.1714 46.0969 12.2876 46.0969 12.4329C46.2131 13.5948 45.3416 14.6406 44.1797 14.7568C43.0177 14.873 41.972 14.0015 41.8558 12.8396C41.8558 12.7234 41.8558 12.5781 41.8558 12.4329ZM45.1964 12.4329C45.1964 11.4452 44.7606 10.8933 43.9763 10.8933C43.192 10.8933 42.7853 11.4743 42.7853 12.4329C42.7853 13.4205 43.2211 13.9725 43.9763 13.9725C44.7606 14.0015 45.1964 13.4205 45.1964 12.4329Z" fill="white"/>
<path id="Vector_12" d="M51.7323 14.6987H50.8028L49.8732 11.3871H49.8151L48.8856 14.6987H47.9851L46.736 10.1961H47.6365L48.4498 13.6239H48.5079L49.4375 10.1961H50.2799L51.2095 13.6239H51.2676L52.0809 10.1961H52.9814L51.7323 14.6987Z" fill="white"/>
<path id="Vector_13" d="M53.9981 10.1961H54.8405V10.9223H54.8986C55.131 10.3995 55.6539 10.0799 56.2349 10.109C57.0482 10.0509 57.7454 10.6609 57.8035 11.4452C57.8035 11.5614 57.8035 11.6486 57.8035 11.7648V14.6696H56.903V11.9681C56.903 11.2419 56.5835 10.8933 55.9444 10.8933C55.3634 10.8642 54.8986 11.3 54.8696 11.8809C54.8696 11.939 54.8696 11.9971 54.8696 12.0262V14.6696H53.9691L53.9981 10.1961Z" fill="white"/>
<path id="Vector_14" d="M59.2559 8.45322H60.1564V14.6987H59.2559V8.45322Z" fill="white"/>
<path id="Vector_15" d="M61.3765 12.4329C61.2603 11.2709 62.1317 10.2252 63.2937 10.109C64.4556 9.99279 65.5014 10.8643 65.6176 12.0262C65.6176 12.1714 65.6176 12.2876 65.6176 12.4329C65.7338 13.5948 64.8623 14.6406 63.7004 14.7568C62.5384 14.873 61.4927 14.0015 61.3765 12.8396C61.3474 12.7234 61.3474 12.5781 61.3765 12.4329ZM64.688 12.4329C64.688 11.4452 64.2523 10.8933 63.468 10.8933C62.6837 10.8933 62.277 11.4743 62.277 12.4329C62.277 13.4205 62.7127 13.9725 63.468 13.9725C64.2523 14.0015 64.688 13.4205 64.688 12.4329Z" fill="white"/>
<path id="Vector_16" d="M66.5471 13.4205C66.5471 12.6072 67.1572 12.1424 68.232 12.0843L69.452 12.0262V11.6486C69.452 11.1838 69.1325 10.8933 68.5224 10.8933C68.0286 10.8933 67.68 11.0676 67.5929 11.3871H66.7214C66.8086 10.6028 67.5348 10.109 68.5515 10.109C69.6844 10.109 70.3235 10.6609 70.3235 11.6195V14.6987H69.4811V14.0596H69.4229C69.1325 14.5244 68.6096 14.7858 68.0867 14.7568C67.3314 14.8439 66.6633 14.292 66.6052 13.5367C66.5471 13.5077 66.5471 13.4786 66.5471 13.4205ZM69.4229 13.0429V12.6653L68.3191 12.7234C67.7091 12.7524 67.4186 12.9848 67.4186 13.3624C67.4186 13.7691 67.7672 14.0015 68.261 14.0015C68.842 14.0596 69.3649 13.6239 69.4229 13.0429Z" fill="white"/>
<path id="Vector_17" d="M71.4854 12.4329C71.4854 11.0095 72.2116 10.109 73.3445 10.109C73.9255 10.0799 74.4484 10.3995 74.7098 10.8933H74.7679V8.42416H75.6684V14.6696H74.826V13.9725H74.7679C74.4774 14.4663 73.9255 14.7858 73.3445 14.7568C72.2116 14.7568 71.4854 13.8563 71.4854 12.4329ZM72.3859 12.4329C72.3859 13.3915 72.8216 13.9725 73.5769 13.9725C74.3322 13.9725 74.797 13.3915 74.797 12.4619C74.797 11.5324 74.3322 10.9224 73.5769 10.9224C72.8507 10.9224 72.3859 11.5033 72.3859 12.4329Z" fill="white"/>
<path id="Vector_18" d="M79.3576 12.4329C79.2414 11.2709 80.1129 10.2252 81.2748 10.109C82.4368 9.99279 83.4825 10.8643 83.5987 12.0262C83.5987 12.1714 83.5987 12.2876 83.5987 12.4329C83.7149 13.5948 82.8434 14.6406 81.6815 14.7568C80.5195 14.873 79.4738 14.0015 79.3576 12.8396C79.3286 12.7234 79.3286 12.5781 79.3576 12.4329ZM82.6691 12.4329C82.6691 11.4452 82.2334 10.8933 81.4491 10.8933C80.6648 10.8933 80.2581 11.4743 80.2581 12.4329C80.2581 13.4205 80.6938 13.9725 81.4491 13.9725C82.2334 14.0015 82.6691 13.4205 82.6691 12.4329Z" fill="white"/>
<path id="Vector_19" d="M84.7897 10.1961H85.6321V10.9223H85.6902C85.9226 10.3995 86.4455 10.0799 87.0265 10.109C87.8398 10.0509 88.537 10.6609 88.5951 11.4452C88.5951 11.5614 88.5951 11.6486 88.5951 11.7648V14.6696H87.6946V11.9681C87.6946 11.2419 87.375 10.8933 86.736 10.8933C86.155 10.8642 85.6902 11.3 85.6612 11.8809C85.6612 11.939 85.6612 11.9971 85.6612 12.0262V14.6696H84.7607V10.1961H84.7897Z" fill="white"/>
<path id="Vector_20" d="M93.6205 9.06323V10.1961H94.6081V10.9514H93.6205V13.2753C93.6205 13.7401 93.8238 13.9434 94.2596 13.9434C94.3758 13.9434 94.492 13.9434 94.6081 13.9144V14.6406C94.4629 14.6696 94.2886 14.6987 94.1143 14.6987C93.1267 14.6987 92.749 14.3501 92.749 13.4786V10.9514H92.0228V10.1961H92.749V9.06323H93.6205Z" fill="white"/>
<path id="Vector_21" d="M95.7991 8.45322H96.6706V10.9224H96.7287C96.9611 10.3995 97.513 10.0799 98.094 10.109C98.9074 10.0509 99.6045 10.69 99.6626 11.5033C99.6626 11.5905 99.6626 11.6776 99.6626 11.7938V14.6987H98.7621V12.0262C98.7621 11.3 98.4135 10.9514 97.8035 10.9514C97.2225 10.8933 96.7287 11.329 96.6706 11.91C96.6706 11.9681 96.6706 12.0262 96.6706 12.0843V14.6987H95.7701L95.7991 8.45322Z" fill="white"/>
<path id="Vector_22" d="M104.833 13.4786C104.572 14.321 103.758 14.873 102.887 14.7858C101.754 14.8149 100.825 13.9144 100.796 12.8105C100.796 12.6943 100.796 12.5781 100.825 12.491C100.679 11.3581 101.464 10.3123 102.597 10.1671C102.684 10.1671 102.8 10.138 102.887 10.138C104.136 10.138 104.891 10.9804 104.891 12.4038V12.7234H101.725V12.7815C101.667 13.4496 102.161 14.0015 102.8 14.0596C102.829 14.0596 102.887 14.0596 102.916 14.0596C103.352 14.1177 103.758 13.8853 103.991 13.5077L104.833 13.4786ZM101.725 12.0262H103.991C104.049 11.4162 103.584 10.9223 103.003 10.8642C102.974 10.8642 102.945 10.8642 102.887 10.8642C102.248 10.8642 101.725 11.3581 101.725 11.9971V12.0262Z" fill="white"/>
</g>
</g>
</g>
</g>
<g id="Group_4">
<g id="Group_5">
<path id="Vector_23" d="M130 0.800076C132.3 0.800076 134.2 2.70008 134.2 5.00008V35.0001C134.2 37.3001 132.3 39.2001 130 39.2001H5C2.7 39.2001 0.799999 37.3001 0.799999 35.0001V5.00008C0.799999 2.70008 2.7 0.800076 5 0.800076H130ZM130 7.62939e-05H5C2.2 7.62939e-05 0 2.20008 0 5.00008V35.0001C0 37.8001 2.2 40.0001 5 40.0001H130C132.8 40.0001 135 37.8001 135 35.0001V5.00008C135 2.20008 132.8 7.62939e-05 130 7.62939e-05Z" fill="#A7A6A6"/>
</g>
</g>
</g>
</svg>
