<svg width="135" height="40" viewBox="0 0 135 40" fill="none" xmlns="http://www.w3.org/2000/svg">
<g id="Google Play Badge">
<g id="Group">
<path id="Vector" d="M130 40.0001H5C2.2 40.0001 0 37.8001 0 35.0001V5.00008C0 2.20008 2.2 7.62939e-05 5 7.62939e-05H130C132.8 7.62939e-05 135 2.20008 135 5.00008V35.0001C135 37.7001 132.8 40.0001 130 40.0001Z" fill="black"/>
</g>
<g id="Group_2">
<g id="Group_3">
<path id="Vector_2" d="M130 0.800076C132.3 0.800076 134.2 2.70008 134.2 5.00008V35.0001C134.2 37.3001 132.3 39.2001 130 39.2001H5C2.7 39.2001 0.799999 37.3001 0.799999 35.0001V5.00008C0.799999 2.70008 2.7 0.800076 5 0.800076H130ZM130 7.62939e-05H5C2.2 7.62939e-05 0 2.20008 0 5.00008V35.0001C0 37.8001 2.2 40.0001 5 40.0001H130C132.8 40.0001 135 37.8001 135 35.0001V5.00008C135 2.20008 132.8 7.62939e-05 130 7.62939e-05Z" fill="#A7A6A6"/>
</g>
</g>
<g id="Group_4">
<path id="Vector_3" d="M47.4 10.2001C47.4 11.0001 47.2 11.7001 46.7 12.2001C46.1 12.8001 45.4 13.1001 44.5 13.1001C43.6 13.1001 42.9 12.8001 42.3 12.2001C41.7 11.6001 41.4 10.9001 41.4 10.0001C41.4 9.10007 41.7 8.40007 42.3 7.80007C42.9 7.20007 43.6 6.90007 44.5 6.90007C44.9 6.90007 45.3 7.00007 45.7 7.20007C46.1 7.40007 46.4 7.60007 46.6 7.90007L46.1 8.30007C45.7 7.80007 45.2 7.60007 44.5 7.60007C43.9 7.60007 43.3 7.80007 42.9 8.30007C42.4 8.70007 42.2 9.30007 42.2 10.0001C42.2 10.7001 42.4 11.3001 42.9 11.7001C43.4 12.1001 43.9 12.4001 44.5 12.4001C45.2 12.4001 45.7 12.2001 46.2 11.7001C46.5 11.4001 46.7 11.0001 46.7 10.5001H44.5V9.80007H47.4C47.4 9.90007 47.4 10.1001 47.4 10.2001Z" fill="white" stroke="white" stroke-width="0.2" stroke-miterlimit="10"/>
<path id="Vector_4" d="M52 7.70007H49.3V9.60007H51.8V10.3001H49.3V12.2001H52V12.9001H48.5V6.90007H52V7.70007Z" fill="white" stroke="white" stroke-width="0.2" stroke-miterlimit="10"/>
<path id="Vector_5" d="M55.3 13.0001H54.5V7.70008H52.8V7.00008H56.9V7.70008H55.2V13.0001H55.3Z" fill="white" stroke="white" stroke-width="0.2" stroke-miterlimit="10"/>
<path id="Vector_6" d="M59.9 13.0001V7.00008H60.7V13.0001H59.9Z" fill="white" stroke="white" stroke-width="0.2" stroke-miterlimit="10"/>
<path id="Vector_7" d="M64.1 13.0001H63.3V7.70008H61.6V7.00008H65.7V7.70008H64V13.0001H64.1Z" fill="white" stroke="white" stroke-width="0.2" stroke-miterlimit="10"/>
<path id="Vector_8" d="M73.6 12.2001C73 12.8001 72.3 13.1001 71.4 13.1001C70.5 13.1001 69.8 12.8001 69.2 12.2001C68.6 11.6001 68.3 10.9001 68.3 10.0001C68.3 9.10007 68.6 8.40007 69.2 7.80007C69.8 7.20007 70.5 6.90007 71.4 6.90007C72.3 6.90007 73 7.20007 73.6 7.80007C74.2 8.40007 74.5 9.10007 74.5 10.0001C74.5 10.8001 74.2 11.6001 73.6 12.2001ZM69.8 11.7001C70.2 12.1001 70.8 12.4001 71.4 12.4001C72 12.4001 72.6 12.2001 73 11.7001C73.4 11.3001 73.7 10.7001 73.7 10.0001C73.7 9.30007 73.5 8.70007 73 8.30007C72.6 7.90007 72 7.60007 71.4 7.60007C70.8 7.60007 70.2 7.80007 69.8 8.30007C69.4 8.70007 69.1 9.30007 69.1 10.0001C69.1 10.7001 69.3 11.2001 69.8 11.7001Z" fill="white" stroke="white" stroke-width="0.2" stroke-miterlimit="10"/>
<path id="Vector_9" d="M75.6 13.0001V7.00008H76.5L79.4 11.7001V10.5001V7.00008H80.2V13.0001H79.4L76.3 8.10007V9.30008V13.0001H75.6Z" fill="white" stroke="white" stroke-width="0.2" stroke-miterlimit="10"/>
</g>
<path id="Vector_10" d="M68.1 21.7001C65.7 21.7001 63.8 23.5001 63.8 26.0001C63.8 28.4001 65.7 30.3001 68.1 30.3001C70.5 30.3001 72.4 28.5001 72.4 26.0001C72.4 23.5001 70.5 21.7001 68.1 21.7001ZM68.1 28.5001C66.8 28.5001 65.7 27.4001 65.7 25.9001C65.7 24.4001 66.8 23.3001 68.1 23.3001C69.4 23.3001 70.5 24.3001 70.5 25.9001C70.5 27.5001 69.4 28.5001 68.1 28.5001ZM58.8 21.7001C56.4 21.7001 54.5 23.5001 54.5 26.0001C54.5 28.4001 56.4 30.3001 58.8 30.3001C61.2 30.3001 63.1 28.5001 63.1 26.0001C63.1 23.5001 61.2 21.7001 58.8 21.7001ZM58.8 28.5001C57.5 28.5001 56.4 27.4001 56.4 25.9001C56.4 24.4001 57.5 23.3001 58.8 23.3001C60.1 23.3001 61.2 24.3001 61.2 25.9001C61.2 27.5001 60.1 28.5001 58.8 28.5001ZM47.7 23.0001V24.8001H52C51.9 25.8001 51.5 26.6001 51 27.1001C50.4 27.7001 49.4 28.4001 47.7 28.4001C45 28.4001 43 26.3001 43 23.6001C43 20.9001 45.1 18.8001 47.7 18.8001C49.1 18.8001 50.2 19.4001 51 20.1001L52.3 18.8001C51.2 17.8001 49.8 17.0001 47.8 17.0001C44.2 17.0001 41.1 20.0001 41.1 23.6001C41.1 27.2001 44.2 30.2001 47.8 30.2001C49.8 30.2001 51.2 29.6001 52.4 28.3001C53.6 27.1001 54 25.4001 54 24.1001C54 23.7001 54 23.3001 53.9 23.0001H47.7ZM93.1 24.4001C92.7 23.4001 91.7 21.7001 89.5 21.7001C87.3 21.7001 85.5 23.4001 85.5 26.0001C85.5 28.4001 87.3 30.3001 89.7 30.3001C91.6 30.3001 92.8 29.1001 93.2 28.4001L91.8 27.4001C91.3 28.1001 90.7 28.6001 89.7 28.6001C88.7 28.6001 88.1 28.2001 87.6 27.3001L93.3 24.9001L93.1 24.4001ZM87.3 25.8001C87.3 24.2001 88.6 23.3001 89.5 23.3001C90.2 23.3001 90.9 23.7001 91.1 24.2001L87.3 25.8001ZM82.6 30.0001H84.5V17.5001H82.6V30.0001ZM79.6 22.7001C79.1 22.2001 78.3 21.7001 77.3 21.7001C75.2 21.7001 73.2 23.6001 73.2 26.0001C73.2 28.4001 75.1 30.2001 77.3 30.2001C78.3 30.2001 79.1 29.7001 79.5 29.2001H79.6V29.8001C79.6 31.4001 78.7 32.3001 77.3 32.3001C76.2 32.3001 75.4 31.5001 75.2 30.8001L73.5 31.5001C74 32.6001 75.2 34.0001 77.3 34.0001C79.5 34.0001 81.3 32.7001 81.3 29.6001V22.0001H79.5V22.7001H79.6ZM77.4 28.5001C76.1 28.5001 75 27.4001 75 25.9001C75 24.4001 76.1 23.3001 77.4 23.3001C78.7 23.3001 79.7 24.4001 79.7 25.9001C79.7 27.5001 78.7 28.5001 77.4 28.5001ZM101.8 17.5001H97.3V30.0001H99.2V25.3001H101.8C103.9 25.3001 105.9 23.8001 105.9 21.4001C105.9 19.0001 103.9 17.5001 101.8 17.5001ZM101.9 23.5001H99.2V19.2001H101.9C103.3 19.2001 104.1 20.4001 104.1 21.3001C104 22.3001 103.2 23.5001 101.9 23.5001ZM113.4 21.7001C112 21.7001 110.6 22.3001 110.1 23.6001L111.8 24.3001C112.2 23.6001 112.8 23.4001 113.5 23.4001C114.5 23.4001 115.4 24.0001 115.5 25.0001V25.1001C115.2 24.9001 114.4 24.6001 113.6 24.6001C111.8 24.6001 110 25.6001 110 27.4001C110 29.1001 111.5 30.2001 113.1 30.2001C114.4 30.2001 115 29.6001 115.5 29.0001H115.6V30.0001H117.4V25.2001C117.2 22.9001 115.5 21.7001 113.4 21.7001ZM113.2 28.5001C112.6 28.5001 111.7 28.2001 111.7 27.4001C111.7 26.4001 112.8 26.1001 113.7 26.1001C114.5 26.1001 114.9 26.3001 115.4 26.5001C115.2 27.7001 114.2 28.5001 113.2 28.5001ZM123.7 22.0001L121.6 27.4001H121.5L119.3 22.0001H117.3L120.6 29.6001L118.7 33.8001H120.6L125.7 22.0001H123.7ZM106.9 30.0001H108.8V17.5001H106.9V30.0001Z" fill="white"/>
<g id="Group_5">
<g id="Group_6">
<g id="Group_7">
<path id="Vector_11" d="M10.4 7.50009C10.1 7.80009 9.9 8.30009 9.9 8.90009V31.0001C9.9 31.6001 10.1 32.1001 10.4 32.4001L10.5 32.5001L22.9 20.1001V20.0001V19.9001L10.4 7.50009Z" fill="#5BC9F4"/>
<path id="Vector_12" d="M27 24.2001L22.9 20.1001V20.0001V19.9001L27 15.8001L27.1 15.9001L32 18.7001C33.4 19.5001 33.4 20.8001 32 21.6001L27 24.2001Z" fill="url(#paint0_linear_289_856)"/>
<path id="Vector_13" d="M27.1 24.2001L22.9 20.0001L10.4 32.4001C10.9 32.9001 11.6 32.9001 12.5 32.5001L27.1 24.2001Z" fill="url(#paint1_linear_289_856)"/>
<path id="Vector_14" d="M27.1 15.7001L12.5 7.50008C11.6 7.00008 10.9 7.10008 10.4 7.60008L22.9 20.1001L27.1 15.7001Z" fill="url(#paint2_linear_289_856)"/>
</g>
</g>
</g>
</g>
<defs>
<linearGradient id="paint0_linear_289_856" x1="31.0888" y1="19.9671" x2="6.912" y2="19.9671" gradientUnits="userSpaceOnUse">
<stop stop-color="#FEE000"/>
<stop offset="0.1941" stop-color="#FCCF0B"/>
<stop offset="0.5469" stop-color="#FAB318"/>
<stop offset="0.8279" stop-color="#F9A21B"/>
<stop offset="1" stop-color="#F99B1C"/>
</linearGradient>
<linearGradient id="paint1_linear_289_856" x1="24.8146" y1="22.2599" x2="2.0751" y2="44.9994" gradientUnits="userSpaceOnUse">
<stop stop-color="#EF4547"/>
<stop offset="1" stop-color="#C6186D"/>
</linearGradient>
<linearGradient id="paint2_linear_289_856" x1="1.9738" y1="-5.16732" x2="20.54" y2="13.3988" gradientUnits="userSpaceOnUse">
<stop stop-color="#279E6F"/>
<stop offset="0.3168" stop-color="#4DAB6D"/>
<stop offset="0.7398" stop-color="#6ABA6A"/>
<stop offset="1" stop-color="#74C169"/>
</linearGradient>
</defs>
</svg>
